<svg width="26" height="26" viewBox="0 0 26 26" fill="none" xmlns="http://www.w3.org/2000/svg">
<path d="M13.0003 5.07007C10.942 5.07007 10.682 5.07007 9.8749 5.11882C9.24548 5.13081 8.62268 5.24987 8.03322 5.4709C7.52845 5.66263 7.07047 5.95995 6.6899 6.34298C6.30373 6.72206 6.00435 7.18037 5.8124 7.68632C5.59396 8.2765 5.47497 8.89884 5.4603 9.52798C5.4278 10.3405 5.41699 10.6113 5.41699 12.6534C5.41699 14.6955 5.41697 14.9717 5.4603 15.7842C5.47486 16.4116 5.59387 17.0322 5.8124 17.6205C6.00166 18.1278 6.3014 18.5866 6.6899 18.9638C7.06898 19.35 7.52727 19.6494 8.03322 19.8413C8.62268 20.0623 9.24548 20.1814 9.8749 20.1934C10.682 20.2313 10.9582 20.2367 13.0003 20.2367C15.0424 20.2367 15.3186 20.2367 16.1257 20.1934C16.7551 20.1814 17.3779 20.0623 17.9674 19.8413C18.4733 19.6494 18.9316 19.35 19.3107 18.9638C19.6994 18.5879 19.9976 18.1285 20.1828 17.6205C20.4061 17.0333 20.527 16.4123 20.5403 15.7842C20.5728 14.9717 20.5837 14.7009 20.5837 12.6534C20.5837 10.6059 20.5837 10.3405 20.5403 9.52798C20.5269 8.89821 20.406 8.27537 20.1828 7.68632C19.995 7.17959 19.6971 6.7208 19.3107 6.34298C18.9301 5.95995 18.4722 5.66263 17.9674 5.4709C17.3779 5.24987 16.7551 5.13081 16.1257 5.11882C15.3186 5.0809 15.0587 5.07007 13.0003 5.07007ZM13.0003 6.44048C15.0262 6.44048 15.2645 6.44049 16.0661 6.48382C16.5469 6.48992 17.0232 6.57784 17.4745 6.74382C17.8042 6.8655 18.1023 7.0599 18.3466 7.31257C18.5909 7.55843 18.7761 7.85665 18.8882 8.18465C19.0581 8.63506 19.1479 9.11166 19.1537 9.59298C19.1862 10.3892 19.197 10.633 19.197 12.6534C19.197 14.6738 19.197 14.923 19.1537 15.7192C19.1479 16.2006 19.0581 16.6772 18.8882 17.1276C18.7748 17.4549 18.5897 17.7529 18.3466 17.9996C18.1008 18.2505 17.8031 18.4446 17.4745 18.5684C17.0232 18.7344 16.5469 18.8223 16.0661 18.8284C15.2645 18.8663 15.0262 18.8717 13.0003 18.8717C10.9745 18.8717 10.7361 18.8717 9.93447 18.8284C9.45367 18.8223 8.97744 18.7344 8.52615 18.5684C8.1975 18.4446 7.89987 18.2505 7.65408 17.9996C7.41091 17.7529 7.22586 17.4549 7.11241 17.1276C6.9426 16.6772 6.85275 16.2006 6.84697 15.7192C6.81447 14.923 6.80366 14.6792 6.80366 12.6534C6.80366 10.6276 6.80363 10.3892 6.84697 9.59298C6.85275 9.11166 6.9426 8.63506 7.11241 8.18465C7.22451 7.85665 7.40974 7.55843 7.65408 7.31257C7.89837 7.0599 8.19644 6.8655 8.52615 6.74382C8.97744 6.57784 9.45367 6.48992 9.93447 6.48382C10.7361 6.45674 10.9745 6.45673 13.0003 6.45673V6.44048Z" fill="white"/>
<path d="M13.0001 15.1829C12.4998 15.1829 12.0107 15.0346 11.5947 14.7566C11.1787 14.4787 10.8545 14.0836 10.663 13.6214C10.4716 13.1592 10.4215 12.6506 10.5191 12.1599C10.6167 11.6692 10.8576 11.2185 11.2114 10.8647C11.5652 10.5109 12.0159 10.27 12.5066 10.1724C12.9973 10.0748 13.5059 10.1249 13.9681 10.3163C14.4303 10.5078 14.8254 10.832 15.1033 11.248C15.3813 11.664 15.5296 12.1531 15.5296 12.6534C15.5296 13.3243 15.2631 13.9677 14.7888 14.4421C14.3144 14.9164 13.671 15.1829 13.0001 15.1829ZM13.0001 8.75879C12.2298 8.75879 11.4768 8.9872 10.8363 9.41514C10.1959 9.84309 9.69671 10.4513 9.40194 11.163C9.10717 11.8746 9.03003 12.6577 9.1803 13.4132C9.33057 14.1686 9.70151 14.8626 10.2462 15.4073C10.7908 15.9519 11.4848 16.3229 12.2403 16.4731C12.9957 16.6234 13.7788 16.5463 14.4904 16.2515C15.2021 15.9567 15.8104 15.4575 16.2383 14.8171C16.6662 14.1766 16.8947 13.4236 16.8947 12.6534C16.8947 11.6205 16.4843 10.6299 15.7539 9.89948C15.0236 9.16911 14.033 8.75879 13.0001 8.75879Z" fill="white"/>
<path d="M17.9557 8.62338C17.9557 8.80336 17.9024 8.9793 17.8024 9.12895C17.7024 9.2786 17.5602 9.39523 17.394 9.46411C17.2277 9.53298 17.0447 9.551 16.8682 9.51589C16.6917 9.48078 16.5295 9.39411 16.4023 9.26684C16.275 9.13958 16.1883 8.97743 16.1532 8.80091C16.1181 8.62439 16.1361 8.44141 16.205 8.27513C16.2739 8.10885 16.3905 7.96673 16.5402 7.86674C16.6898 7.76675 16.8658 7.71338 17.0457 7.71338C17.2871 7.71338 17.5185 7.80925 17.6892 7.97991C17.8599 8.15056 17.9557 8.38203 17.9557 8.62338Z" fill="white"/>
</svg>
