<svg width="26" height="26" viewBox="0 0 26 26" fill="none" xmlns="http://www.w3.org/2000/svg">
<path d="M20.3125 9.05566C19.7823 9.2906 19.2127 9.44935 18.6139 9.5211C19.2248 9.15535 19.6934 8.57497 19.9144 7.88411C19.3429 8.22319 18.7098 8.46956 18.0361 8.60164C17.4964 8.02761 16.728 7.66821 15.8771 7.66821C14.244 7.66821 12.9194 8.99279 12.9194 10.6272C12.9194 10.8584 12.946 11.0832 12.9956 11.3003C10.5363 11.1765 8.35764 9.99861 6.89844 8.20922C6.64445 8.64736 6.4984 9.15535 6.4984 9.69636C6.4984 10.7225 7.021 11.6286 7.81409 12.1588C7.32896 12.143 6.87304 12.0102 6.47427 11.7886V11.8267C6.47427 13.2599 7.49342 14.4556 8.84721 14.7273C8.5983 14.7947 8.33732 14.8302 8.06809 14.8302C7.87759 14.8302 7.69154 14.8124 7.5112 14.7781C7.88775 15.9529 8.97993 16.8088 10.2747 16.8317C9.26186 17.6254 7.98617 18.0985 6.60064 18.0985C6.36188 18.0985 6.1263 18.0845 5.89453 18.0572C7.20387 18.8973 8.75832 19.3862 10.4283 19.3862C15.8702 19.3862 18.8451 14.8791 18.8451 10.9701C18.8451 10.8431 18.8419 10.7149 18.8362 10.5879C19.414 10.1701 19.9156 9.65 20.3112 9.05756L20.3125 9.05566Z" fill="white"/>
</svg>
